<svg xmlns="http://www.w3.org/2000/svg" viewBox="0 0 577 227" width="577" height="227" role="img" aria-label="HooCode subagents demo: options pane, TodoWrite tasks lens, and a depth-2 subagents tree, animated">
  <title>HooCode — subagents demo (options pane → task pane, depth-2)</title>
  <style>text{dominant-baseline:alphabetic}
.f0{opacity:0;animation:f0 14.2s linear infinite}
.f1{opacity:0;animation:f1 14.2s linear infinite}
.f2{opacity:0;animation:f2 14.2s linear infinite}
.f3{opacity:0;animation:f3 14.2s linear infinite}
.f4{opacity:0;animation:f4 14.2s linear infinite}
@keyframes f0{0%,96%{opacity:1}100%{opacity:0}}
@keyframes f1{0%,16.20%{opacity:0}19.72%,96%{opacity:1}100%{opacity:0}}
@keyframes f2{0%,31.69%{opacity:0}35.21%,96%{opacity:1}100%{opacity:0}}
@keyframes f3{0%,47.18%{opacity:0}50.70%,96%{opacity:1}100%{opacity:0}}
@keyframes f4{0%,68.31%{opacity:0}71.83%,96%{opacity:1}100%{opacity:0}}</style>
  <rect width="577" height="227" rx="12" fill="#13131a"/>
  <rect width="577" height="38" rx="12" fill="#1e1e24"/>
  <rect y="26" width="577" height="12" fill="#1e1e24"/>
  <line x1="0" y1="38" x2="577" y2="38" stroke="#2a2a33" stroke-width="1"/>
  <circle cx="24" cy="19" r="6" fill="#cc6666"/>
  <circle cx="44" cy="19" r="6" fill="#e6c547"/>
  <circle cx="64" cy="19" r="6" fill="#7fb069"/>
  <text x="288.5" y="22.5" text-anchor="middle" font-size="11" fill="#808080" font-family="ui-monospace,SFMono-Regular,Menlo,Consolas,monospace">hoocode — subagents demo</text>
  <g class="f0"><rect x="0" y="38" width="577" height="189" fill="#13131a"/><text y="58.0" font-size="11" font-family="ui-monospace,SFMono-Regular,Menlo,Consolas,monospace" xml:space="preserve"><tspan x="18.0 24.6 31.2 37.8 44.4 51.0 57.6 64.2 70.8 77.4 84.0 90.6 97.2 103.8 110.4 117.0 123.6 130.2 136.8 143.4 150.0 156.6 163.2 169.8 176.4 183.0 189.6 196.2 202.8 209.4 216.0 222.6 229.2 235.8 242.4 249.0 255.6 262.2 268.8 275.4 282.0 288.6 295.2 301.8 308.4 315.0" fill="#00d7ff" font-weight="600">▸ the agent asks before it acts — options pane</tspan></text><text y="79.5" font-size="11" font-family="ui-monospace,SFMono-Regular,Menlo,Consolas,monospace" xml:space="preserve"><tspan x="18.0 24.6 31.2 37.8 44.4 51.0 57.6 64.2 70.8 77.4 84.0 90.6 97.2 103.8 110.4 117.0 123.6 130.2 136.8 143.4 150.0 156.6 163.2 169.8 176.4 183.0 189.6 196.2 202.8 209.4 216.0 222.6 229.2 235.8 242.4 249.0 255.6 262.2 268.8 275.4 282.0 288.6 295.2 301.8 308.4 315.0 321.6 328.2 334.8 341.4 348.0 354.6 361.2 367.8 374.4 381.0 387.6 394.2 400.8 407.4 414.0 420.6 427.2 433.8 440.4 447.0 453.6 460.2 466.8 473.4 480.0 486.6 493.2 499.8 506.4 513.0 519.6 526.2 532.8 539.4 546.0 552.6" fill="#00d7ff">──────────────────────────────────────────────────────────────────────────────────</tspan></text><text y="95.0" font-size="11" font-family="ui-monospace,SFMono-Regular,Menlo,Consolas,monospace" xml:space="preserve"><tspan x="18.0 24.6 31.2 37.8 44.4 51.0 57.6 64.2 70.8 77.4 84.0 90.6" fill="#00d7ff">INPUT NEEDED</tspan><tspan x="97.2 103.8 110.4 117.0 123.6 130.2 136.8 143.4 150.0 156.6 163.2 169.8 176.4 183.0 189.6 196.2 202.8 209.4 216.0 222.6 229.2 235.8" fill="#c9cdd3">                      </tspan><tspan x="242.4 249.0 255.6 262.2 268.8 275.4 282.0" fill="#626262">up/down</tspan><tspan x="288.6 295.2 301.8 308.4 315.0" fill="#808080"> move</tspan><tspan x="321.6 328.2 334.8" fill="#808080"> · </tspan><tspan x="341.4 348.0 354.6 361.2 367.8" fill="#626262">right</tspan><tspan x="374.4 381.0 387.6 394.2 400.8 407.4 414.0" fill="#808080"> submit</tspan><tspan x="420.6 427.2 433.8" fill="#808080"> · </tspan><tspan x="440.4 447.0 453.6 460.2 466.8 473.4 480.0 486.6 493.2 499.8 506.4 513.0 519.6" fill="#626262">escape/ctrl+c</tspan><tspan x="526.2 532.8 539.4 546.0 552.6" fill="#808080"> skip</tspan></text><text y="110.5" font-size="11" font-family="ui-monospace,SFMono-Regular,Menlo,Consolas,monospace" xml:space="preserve"><tspan x="18.0 24.6 31.2" fill="#626262">1/1</tspan><tspan x="37.8 44.4 51.0 57.6 64.2 70.8 77.4 84.0 90.6 97.2 103.8 110.4 117.0 123.6 130.2 136.8 143.4 150.0 156.6 163.2 169.8 176.4 183.0 189.6 196.2 202.8 209.4 216.0 222.6 229.2 235.8 242.4 249.0 255.6 262.2 268.8" fill="#c9cdd3"> How thorough should this change be?</tspan></text><text y="126.0" font-size="11" font-family="ui-monospace,SFMono-Regular,Menlo,Consolas,monospace" xml:space="preserve"></text><text y="141.5" font-size="11" font-family="ui-monospace,SFMono-Regular,Menlo,Consolas,monospace" xml:space="preserve"><tspan x="18.0" fill="#87afaf">&gt;</tspan><tspan x="24.6" fill="#c9cdd3"> </tspan><tspan x="31.2" fill="#87afaf">1</tspan><tspan x="37.8 44.4 51.0 57.6 64.2 70.8 77.4 84.0 90.6" fill="#c9cdd3"> Standard</tspan><tspan x="97.2 103.8 110.4 117.0 123.6 130.2 136.8 143.4 150.0 156.6 163.2 169.8 176.4 183.0" fill="#afaf5f"> (recommended)</tspan><tspan x="189.6 196.2 202.8 209.4 216.0 222.6 229.2 235.8 242.4 249.0 255.6 262.2 268.8 275.4 282.0 288.6 295.2 301.8 308.4 315.0 321.6 328.2 334.8 341.4 348.0 354.6 361.2 367.8 374.4 381.0 387.6 394.2 400.8 407.4 414.0 420.6 427.2 433.8" fill="#808080">   explore (+ nested scan) then review</tspan></text><text y="157.0" font-size="11" font-family="ui-monospace,SFMono-Regular,Menlo,Consolas,monospace" xml:space="preserve"><tspan x="18.0" fill="#87afaf"> </tspan><tspan x="24.6" fill="#c9cdd3"> </tspan><tspan x="31.2" fill="#626262">2</tspan><tspan x="37.8 44.4 51.0 57.6 64.2" fill="#c9cdd3"> Deep</tspan><tspan x="70.8 77.4 84.0 90.6 97.2 103.8 110.4 117.0 123.6 130.2 136.8 143.4 150.0 156.6 163.2 169.8 176.4 183.0 189.6 196.2 202.8 209.4 216.0 222.6 229.2 235.8 242.4 249.0 255.6 262.2 268.8 275.4 282.0 288.6 295.2 301.8 308.4 315.0 321.6 328.2 334.8 341.4 348.0 354.6" fill="#808080">   explore, nested scan, and a longer review</tspan></text><text y="172.5" font-size="11" font-family="ui-monospace,SFMono-Regular,Menlo,Consolas,monospace" xml:space="preserve"><tspan x="18.0" fill="#87afaf"> </tspan><tspan x="24.6" fill="#c9cdd3"> </tspan><tspan x="31.2" fill="#626262">3</tspan><tspan x="37.8 44.4 51.0 57.6 64.2 70.8" fill="#c9cdd3"> Quick</tspan><tspan x="77.4 84.0 90.6 97.2 103.8 110.4 117.0 123.6 130.2 136.8 143.4 150.0 156.6 163.2 169.8 176.4 183.0 189.6 196.2 202.8 209.4 216.0 222.6 229.2 235.8 242.4 249.0 255.6 262.2 268.8 275.4 282.0 288.6" fill="#808080">   explore only — skip the review</tspan></text><text y="188.0" font-size="11" font-family="ui-monospace,SFMono-Regular,Menlo,Consolas,monospace" xml:space="preserve"><tspan x="18.0 24.6 31.2 37.8 44.4" fill="#626262">(1/3)</tspan></text><text y="203.5" font-size="11" font-family="ui-monospace,SFMono-Regular,Menlo,Consolas,monospace" xml:space="preserve"><tspan x="18.0 24.6 31.2 37.8 44.4 51.0 57.6 64.2 70.8 77.4 84.0 90.6 97.2 103.8 110.4 117.0 123.6 130.2 136.8 143.4 150.0 156.6 163.2 169.8 176.4 183.0 189.6 196.2 202.8 209.4 216.0 222.6 229.2 235.8 242.4 249.0 255.6 262.2 268.8 275.4 282.0 288.6 295.2 301.8 308.4 315.0 321.6 328.2 334.8 341.4 348.0 354.6 361.2 367.8 374.4 381.0 387.6 394.2 400.8 407.4 414.0 420.6 427.2 433.8 440.4 447.0 453.6 460.2 466.8 473.4 480.0 486.6 493.2 499.8 506.4 513.0 519.6 526.2 532.8 539.4 546.0 552.6" fill="#00d7ff">──────────────────────────────────────────────────────────────────────────────────</tspan></text></g>
  <g class="f1"><rect x="0" y="38" width="577" height="189" fill="#13131a"/><text y="58.0" font-size="11" font-family="ui-monospace,SFMono-Regular,Menlo,Consolas,monospace" xml:space="preserve"><tspan x="18.0 24.6 31.2 37.8 44.4 51.0 57.6 64.2 70.8 77.4 84.0 90.6 97.2 103.8 110.4 117.0 123.6 130.2 136.8 143.4 150.0 156.6 163.2 169.8 176.4 183.0 189.6 196.2 202.8 209.4 216.0 222.6 229.2" fill="#00d7ff" font-weight="600">▸ TodoWrite plan — the tasks lens</tspan></text><text y="79.5" font-size="11" font-family="ui-monospace,SFMono-Regular,Menlo,Consolas,monospace" xml:space="preserve"><tspan x="18.0" fill="#ffff00">▎</tspan><tspan x="24.6" fill="#c9cdd3"> </tspan><tspan x="31.2" fill="#ffff00">◐</tspan><tspan x="37.8" fill="#c9cdd3"> </tspan><tspan x="44.4 51.0 57.6 64.2 70.8 77.4 84.0" fill="#ffff00">WORKING</tspan><tspan x="90.6 97.2" fill="#c9cdd3">  </tspan><tspan x="103.8 110.4" fill="#afaf5f">━━</tspan><tspan x="117.0 123.6 130.2 136.8 143.4 150.0 156.6 163.2 169.8 176.4 183.0 189.6" fill="#626262">━━━━━━━━━━━━</tspan><tspan x="196.2" fill="#c9cdd3"> </tspan><tspan x="202.8" fill="#808080">0</tspan><tspan x="209.4" fill="#626262">/</tspan><tspan x="216.0" fill="#808080">4</tspan><tspan x="222.6 229.2 235.8 242.4 249.0 255.6 262.2 268.8 275.4 282.0 288.6 295.2 301.8 308.4 315.0 321.6 328.2 334.8 341.4 348.0 354.6 361.2 367.8 374.4 381.0 387.6 394.2 400.8 407.4 414.0 420.6 427.2 433.8 440.4 447.0 453.6 460.2 466.8 473.4 480.0 486.6 493.2 499.8 506.4 513.0 519.6 526.2 532.8 539.4 546.0 552.6" fill="#c9cdd3">                                                   </tspan></text><text y="95.0" font-size="11" font-family="ui-monospace,SFMono-Regular,Menlo,Consolas,monospace" xml:space="preserve"><tspan x="18.0" fill="#ffff00">▎</tspan><tspan x="24.6" fill="#c9cdd3"> </tspan><tspan x="31.2" fill="#ffff00">⠋</tspan><tspan x="37.8" fill="#c9cdd3"> </tspan><tspan x="44.4" fill="#626262">◆</tspan><tspan x="51.0" fill="#c9cdd3"> </tspan><tspan x="57.6 64.2" fill="#626262">#1</tspan><tspan x="70.8 77.4 84.0 90.6 97.2 103.8 110.4 117.0 123.6 130.2 136.8 143.4 150.0 156.6 163.2 169.8 176.4 183.0 189.6 196.2 202.8 209.4 216.0 222.6 229.2 235.8 242.4 249.0 255.6 262.2 268.8 275.4 282.0 288.6 295.2 301.8 308.4 315.0 321.6 328.2 334.8 341.4 348.0 354.6 361.2 367.8 374.4 381.0 387.6 394.2 400.8 407.4 414.0 420.6 427.2 433.8 440.4 447.0 453.6 460.2 466.8 473.4 480.0 486.6 493.2 499.8" fill="#c9cdd3"> Survey the codebase                                              </tspan><tspan x="506.4 513.0 519.6 526.2 532.8 539.4 546.0 552.6" fill="#ffff00">running…</tspan></text><text y="110.5" font-size="11" font-family="ui-monospace,SFMono-Regular,Menlo,Consolas,monospace" xml:space="preserve"><tspan x="18.0" fill="#ffff00">▎</tspan><tspan x="24.6" fill="#c9cdd3"> </tspan><tspan x="31.2" fill="#626262">●</tspan><tspan x="37.8" fill="#c9cdd3"> </tspan><tspan x="44.4" fill="#626262">◆</tspan><tspan x="51.0" fill="#c9cdd3"> </tspan><tspan x="57.6 64.2" fill="#626262">#2</tspan><tspan x="70.8" fill="#c9cdd3"> </tspan><tspan x="77.4 84.0 90.6 97.2 103.8 110.4 117.0 123.6 130.2 136.8 143.4 150.0 156.6 163.2 169.8 176.4 183.0 189.6 196.2 202.8 209.4 216.0 222.6 229.2 235.8 242.4" fill="#626262">Implement provider handoff</tspan><tspan x="249.0 255.6 262.2 268.8 275.4 282.0 288.6 295.2 301.8 308.4 315.0 321.6 328.2 334.8 341.4 348.0 354.6 361.2 367.8 374.4 381.0 387.6 394.2 400.8 407.4 414.0 420.6 427.2 433.8 440.4 447.0 453.6 460.2 466.8 473.4 480.0 486.6 493.2 499.8 506.4 513.0" fill="#c9cdd3">                                         </tspan><tspan x="519.6 526.2 532.8 539.4 546.0 552.6" fill="#626262">queued</tspan></text><text y="126.0" font-size="11" font-family="ui-monospace,SFMono-Regular,Menlo,Consolas,monospace" xml:space="preserve"><tspan x="18.0" fill="#ffff00">▎</tspan><tspan x="24.6" fill="#c9cdd3"> </tspan><tspan x="31.2" fill="#626262">●</tspan><tspan x="37.8" fill="#c9cdd3"> </tspan><tspan x="44.4" fill="#626262">◆</tspan><tspan x="51.0" fill="#c9cdd3"> </tspan><tspan x="57.6 64.2" fill="#626262">#3</tspan><tspan x="70.8" fill="#c9cdd3"> </tspan><tspan x="77.4 84.0 90.6 97.2 103.8 110.4 117.0 123.6 130.2 136.8 143.4 150.0 156.6 163.2 169.8 176.4 183.0 189.6 196.2 202.8 209.4 216.0 222.6 229.2" fill="#626262">Add cross-provider tests</tspan><tspan x="235.8 242.4 249.0 255.6 262.2 268.8 275.4 282.0 288.6 295.2 301.8 308.4 315.0 321.6 328.2 334.8 341.4 348.0 354.6 361.2 367.8 374.4 381.0 387.6 394.2 400.8 407.4 414.0 420.6 427.2 433.8 440.4 447.0 453.6 460.2 466.8 473.4 480.0 486.6 493.2 499.8 506.4 513.0" fill="#c9cdd3">                                           </tspan><tspan x="519.6 526.2 532.8 539.4 546.0 552.6" fill="#626262">queued</tspan></text><text y="141.5" font-size="11" font-family="ui-monospace,SFMono-Regular,Menlo,Consolas,monospace" xml:space="preserve"><tspan x="18.0" fill="#ffff00">▎</tspan><tspan x="24.6" fill="#c9cdd3"> </tspan><tspan x="31.2" fill="#626262">●</tspan><tspan x="37.8" fill="#c9cdd3"> </tspan><tspan x="44.4" fill="#626262">◆</tspan><tspan x="51.0" fill="#c9cdd3"> </tspan><tspan x="57.6 64.2" fill="#626262">#4</tspan><tspan x="70.8" fill="#c9cdd3"> </tspan><tspan x="77.4 84.0 90.6 97.2 103.8 110.4 117.0 123.6 130.2 136.8 143.4 150.0 156.6 163.2 169.8" fill="#626262">Update the docs</tspan><tspan x="176.4 183.0 189.6 196.2 202.8 209.4 216.0 222.6 229.2 235.8 242.4 249.0 255.6 262.2 268.8 275.4 282.0 288.6 295.2 301.8 308.4 315.0 321.6 328.2 334.8 341.4 348.0 354.6 361.2 367.8 374.4 381.0 387.6 394.2 400.8 407.4 414.0 420.6 427.2 433.8 440.4 447.0 453.6 460.2 466.8 473.4 480.0 486.6 493.2 499.8 506.4 513.0" fill="#c9cdd3">                                                    </tspan><tspan x="519.6 526.2 532.8 539.4 546.0 552.6" fill="#626262">queued</tspan></text></g>
  <g class="f2"><rect x="0" y="38" width="577" height="189" fill="#13131a"/><text y="58.0" font-size="11" font-family="ui-monospace,SFMono-Regular,Menlo,Consolas,monospace" xml:space="preserve"><tspan x="18.0 24.6 31.2 37.8 44.4 51.0 57.6 64.2 70.8 77.4 84.0 90.6 97.2 103.8 110.4 117.0 123.6 130.2 136.8 143.4 150.0 156.6 163.2 169.8 176.4 183.0" fill="#00d7ff" font-weight="600">▸ working through the plan</tspan></text><text y="79.5" font-size="11" font-family="ui-monospace,SFMono-Regular,Menlo,Consolas,monospace" xml:space="preserve"><tspan x="18.0" fill="#ffff00">▎</tspan><tspan x="24.6" fill="#c9cdd3"> </tspan><tspan x="31.2" fill="#ffff00">◐</tspan><tspan x="37.8" fill="#c9cdd3"> </tspan><tspan x="44.4 51.0 57.6 64.2 70.8 77.4 84.0" fill="#ffff00">WORKING</tspan><tspan x="90.6 97.2" fill="#c9cdd3">  </tspan><tspan x="103.8 110.4 117.0 123.6 130.2" fill="#afaf5f">━━━━━</tspan><tspan x="136.8 143.4 150.0 156.6 163.2 169.8 176.4 183.0 189.6" fill="#626262">━━━━━━━━━</tspan><tspan x="196.2" fill="#c9cdd3"> </tspan><tspan x="202.8" fill="#808080">1</tspan><tspan x="209.4" fill="#626262">/</tspan><tspan x="216.0" fill="#808080">4</tspan><tspan x="222.6 229.2 235.8 242.4 249.0 255.6 262.2 268.8 275.4 282.0 288.6 295.2 301.8 308.4 315.0 321.6 328.2 334.8 341.4 348.0 354.6 361.2 367.8 374.4 381.0 387.6 394.2 400.8 407.4 414.0 420.6 427.2 433.8 440.4 447.0 453.6 460.2 466.8 473.4 480.0 486.6 493.2 499.8 506.4 513.0 519.6 526.2 532.8 539.4 546.0 552.6" fill="#c9cdd3">                                                   </tspan></text><text y="95.0" font-size="11" font-family="ui-monospace,SFMono-Regular,Menlo,Consolas,monospace" xml:space="preserve"><tspan x="18.0" fill="#ffff00">▎</tspan><tspan x="24.6" fill="#c9cdd3"> </tspan><tspan x="31.2" fill="#afaf5f">✓</tspan><tspan x="37.8" fill="#c9cdd3"> </tspan><tspan x="44.4" fill="#626262">◆</tspan><tspan x="51.0" fill="#c9cdd3"> </tspan><tspan x="57.6 64.2" fill="#626262">#1</tspan><tspan x="70.8" fill="#c9cdd3"> </tspan><tspan x="77.4 84.0 90.6 97.2 103.8 110.4 117.0 123.6 130.2 136.8 143.4 150.0 156.6 163.2 169.8 176.4 183.0 189.6 196.2" fill="#808080">Survey the codebase</tspan><tspan x="202.8 209.4 216.0 222.6 229.2 235.8 242.4 249.0 255.6 262.2 268.8 275.4 282.0 288.6 295.2 301.8 308.4 315.0 321.6 328.2 334.8 341.4 348.0 354.6 361.2 367.8 374.4 381.0 387.6 394.2 400.8 407.4 414.0 420.6 427.2 433.8 440.4 447.0 453.6 460.2 466.8 473.4 480.0 486.6 493.2 499.8 506.4 513.0 519.6 526.2" fill="#c9cdd3">                                                  </tspan><tspan x="532.8 539.4 546.0 552.6" fill="#626262">4.1s</tspan></text><text y="110.5" font-size="11" font-family="ui-monospace,SFMono-Regular,Menlo,Consolas,monospace" xml:space="preserve"><tspan x="18.0" fill="#ffff00">▎</tspan><tspan x="24.6" fill="#c9cdd3"> </tspan><tspan x="31.2" fill="#ffff00">⠋</tspan><tspan x="37.8" fill="#c9cdd3"> </tspan><tspan x="44.4" fill="#626262">◆</tspan><tspan x="51.0" fill="#c9cdd3"> </tspan><tspan x="57.6 64.2" fill="#626262">#2</tspan><tspan x="70.8 77.4 84.0 90.6 97.2 103.8 110.4 117.0 123.6 130.2 136.8 143.4 150.0 156.6 163.2 169.8 176.4 183.0 189.6 196.2 202.8 209.4 216.0 222.6 229.2 235.8 242.4 249.0 255.6 262.2 268.8 275.4 282.0 288.6 295.2 301.8 308.4 315.0 321.6 328.2 334.8 341.4 348.0 354.6 361.2 367.8 374.4 381.0 387.6 394.2 400.8 407.4 414.0 420.6 427.2 433.8 440.4 447.0 453.6 460.2 466.8 473.4 480.0 486.6 493.2 499.8" fill="#c9cdd3"> Implement provider handoff                                       </tspan><tspan x="506.4 513.0 519.6 526.2 532.8 539.4 546.0 552.6" fill="#ffff00">running…</tspan></text><text y="126.0" font-size="11" font-family="ui-monospace,SFMono-Regular,Menlo,Consolas,monospace" xml:space="preserve"><tspan x="18.0" fill="#ffff00">▎</tspan><tspan x="24.6" fill="#c9cdd3"> </tspan><tspan x="31.2" fill="#626262">●</tspan><tspan x="37.8" fill="#c9cdd3"> </tspan><tspan x="44.4" fill="#626262">◆</tspan><tspan x="51.0" fill="#c9cdd3"> </tspan><tspan x="57.6 64.2" fill="#626262">#3</tspan><tspan x="70.8" fill="#c9cdd3"> </tspan><tspan x="77.4 84.0 90.6 97.2 103.8 110.4 117.0 123.6 130.2 136.8 143.4 150.0 156.6 163.2 169.8 176.4 183.0 189.6 196.2 202.8 209.4 216.0 222.6 229.2" fill="#626262">Add cross-provider tests</tspan><tspan x="235.8 242.4 249.0 255.6 262.2 268.8 275.4 282.0 288.6 295.2 301.8 308.4 315.0 321.6 328.2 334.8 341.4 348.0 354.6 361.2 367.8 374.4 381.0 387.6 394.2 400.8 407.4 414.0 420.6 427.2 433.8 440.4 447.0 453.6 460.2 466.8 473.4 480.0 486.6 493.2 499.8 506.4 513.0" fill="#c9cdd3">                                           </tspan><tspan x="519.6 526.2 532.8 539.4 546.0 552.6" fill="#626262">queued</tspan></text><text y="141.5" font-size="11" font-family="ui-monospace,SFMono-Regular,Menlo,Consolas,monospace" xml:space="preserve"><tspan x="18.0" fill="#ffff00">▎</tspan><tspan x="24.6" fill="#c9cdd3"> </tspan><tspan x="31.2" fill="#626262">●</tspan><tspan x="37.8" fill="#c9cdd3"> </tspan><tspan x="44.4" fill="#626262">◆</tspan><tspan x="51.0" fill="#c9cdd3"> </tspan><tspan x="57.6 64.2" fill="#626262">#4</tspan><tspan x="70.8" fill="#c9cdd3"> </tspan><tspan x="77.4 84.0 90.6 97.2 103.8 110.4 117.0 123.6 130.2 136.8 143.4 150.0 156.6 163.2 169.8" fill="#626262">Update the docs</tspan><tspan x="176.4 183.0 189.6 196.2 202.8 209.4 216.0 222.6 229.2 235.8 242.4 249.0 255.6 262.2 268.8 275.4 282.0 288.6 295.2 301.8 308.4 315.0 321.6 328.2 334.8 341.4 348.0 354.6 361.2 367.8 374.4 381.0 387.6 394.2 400.8 407.4 414.0 420.6 427.2 433.8 440.4 447.0 453.6 460.2 466.8 473.4 480.0 486.6 493.2 499.8 506.4 513.0" fill="#c9cdd3">                                                    </tspan><tspan x="519.6 526.2 532.8 539.4 546.0 552.6" fill="#626262">queued</tspan></text></g>
  <g class="f3"><rect x="0" y="38" width="577" height="189" fill="#13131a"/><text y="58.0" font-size="11" font-family="ui-monospace,SFMono-Regular,Menlo,Consolas,monospace" xml:space="preserve"><tspan x="18.0 24.6 31.2 37.8 44.4 51.0 57.6 64.2 70.8 77.4 84.0 90.6 97.2 103.8 110.4 117.0 123.6 130.2 136.8 143.4 150.0 156.6 163.2 169.8 176.4 183.0 189.6 196.2 202.8 209.4 216.0 222.6 229.2 235.8 242.4 249.0 255.6 262.2 268.8 275.4 282.0 288.6 295.2 301.8 308.4 315.0 321.6 328.2 334.8 341.4 348.0 354.6" fill="#00d7ff" font-weight="600">▸ subagents — explore dispatches scan (depth-2 tree)</tspan></text><text y="79.5" font-size="11" font-family="ui-monospace,SFMono-Regular,Menlo,Consolas,monospace" xml:space="preserve"><tspan x="18.0" fill="#ffff00">▎</tspan><tspan x="24.6" fill="#c9cdd3"> </tspan><tspan x="31.2" fill="#ffff00">◐</tspan><tspan x="37.8" fill="#c9cdd3"> </tspan><tspan x="44.4 51.0 57.6 64.2 70.8 77.4 84.0" fill="#ffff00">WORKING</tspan><tspan x="90.6" fill="#c9cdd3"> </tspan><tspan x="97.2" fill="#808080">2</tspan><tspan x="103.8" fill="#626262">/</tspan><tspan x="110.4" fill="#808080">5</tspan><tspan x="117.0 123.6 130.2 136.8 143.4 150.0 156.6 163.2 169.8 176.4 183.0 189.6 196.2 202.8 209.4 216.0 222.6" fill="#c9cdd3">                 </tspan><tspan x="229.2 235.8 242.4 249.0 255.6 262.2" fill="#808080">turn ↑</tspan><tspan x="268.8 275.4 282.0 288.6" fill="#c9cdd3">5.3k</tspan><tspan x="295.2 301.8" fill="#808080"> ↓</tspan><tspan x="308.4 315.0 321.6" fill="#c9cdd3">780</tspan><tspan x="328.2 334.8 341.4" fill="#626262"> · </tspan><tspan x="348.0 354.6 361.2 367.8" fill="#808080">3.6s</tspan><tspan x="374.4 381.0 387.6" fill="#626262"> · </tspan><tspan x="394.2 400.8 407.4 414.0 420.6 427.2 433.8 440.4" fill="#c9cdd3">$0.030  </tspan><tspan x="447.0 453.6 460.2 466.8 473.4" fill="#626262">tasks</tspan><tspan x="480.0 486.6 493.2" fill="#626262"> · </tspan><tspan x="499.8 506.4 513.0 519.6 526.2 532.8 539.4 546.0 552.6" fill="#87afaf">subagents</tspan></text><text y="95.0" font-size="11" font-family="ui-monospace,SFMono-Regular,Menlo,Consolas,monospace" xml:space="preserve"><tspan x="18.0" fill="#ffff00">▎</tspan><tspan x="24.6" fill="#c9cdd3"> </tspan><tspan x="31.2" fill="#626262">●</tspan><tspan x="37.8" fill="#c9cdd3"> </tspan><tspan x="44.4" fill="#626262">◇</tspan><tspan x="51.0" fill="#c9cdd3"> </tspan><tspan x="57.6 64.2" fill="#626262">#5</tspan><tspan x="70.8" fill="#c9cdd3"> </tspan><tspan x="77.4 84.0 90.6 97.2 103.8 110.4 117.0 123.6 130.2" fill="#87afaf">[explore]</tspan><tspan x="136.8" fill="#c9cdd3"> </tspan><tspan x="143.4 150.0 156.6 163.2 169.8 176.4 183.0 189.6 196.2 202.8 209.4 216.0 222.6 229.2 235.8 242.4 249.0 255.6 262.2 268.8 275.4 282.0 288.6 295.2 301.8 308.4 315.0 321.6 328.2" fill="#626262">explore: map the ai providers</tspan><tspan x="334.8 341.4 348.0 354.6 361.2 367.8 374.4 381.0 387.6 394.2 400.8 407.4 414.0 420.6 427.2 433.8 440.4 447.0 453.6 460.2 466.8 473.4 480.0 486.6 493.2 499.8 506.4 513.0" fill="#c9cdd3">                            </tspan><tspan x="519.6 526.2 532.8 539.4 546.0 552.6" fill="#626262">queued</tspan></text><text y="110.5" font-size="11" font-family="ui-monospace,SFMono-Regular,Menlo,Consolas,monospace" xml:space="preserve"><tspan x="18.0" fill="#ffff00">▎</tspan><tspan x="24.6" fill="#c9cdd3"> </tspan><tspan x="31.2 37.8 44.4" fill="#4e4e4e">├─ </tspan><tspan x="51.0" fill="#afaf5f">✓</tspan><tspan x="57.6" fill="#c9cdd3"> </tspan><tspan x="64.2" fill="#626262">◇</tspan><tspan x="70.8" fill="#c9cdd3"> </tspan><tspan x="77.4 84.0" fill="#626262">#6</tspan><tspan x="90.6" fill="#c9cdd3"> </tspan><tspan x="97.2 103.8 110.4 117.0 123.6 130.2 136.8 143.4 150.0 156.6 163.2 169.8 176.4 183.0 189.6 196.2 202.8 209.4 216.0 222.6 229.2" fill="#808080">list provider modules</tspan><tspan x="235.8 242.4 249.0 255.6 262.2 268.8 275.4 282.0 288.6 295.2 301.8 308.4 315.0 321.6 328.2 334.8 341.4 348.0 354.6 361.2 367.8 374.4 381.0 387.6 394.2 400.8 407.4 414.0 420.6 427.2 433.8 440.4 447.0 453.6 460.2 466.8 473.4 480.0" fill="#c9cdd3">                                      </tspan><tspan x="486.6 493.2 499.8 506.4" fill="#808080">3.6k</tspan><tspan x="513.0 519.6 526.2 532.8 539.4 546.0 552.6" fill="#626262"> · 2.4s</tspan></text><text y="126.0" font-size="11" font-family="ui-monospace,SFMono-Regular,Menlo,Consolas,monospace" xml:space="preserve"><tspan x="18.0" fill="#ffff00">▎</tspan><tspan x="24.6" fill="#c9cdd3"> </tspan><tspan x="31.2 37.8 44.4" fill="#4e4e4e">└─ </tspan><tspan x="51.0" fill="#626262">●</tspan><tspan x="57.6" fill="#c9cdd3"> </tspan><tspan x="64.2" fill="#626262">◇</tspan><tspan x="70.8" fill="#c9cdd3"> </tspan><tspan x="77.4 84.0" fill="#626262">#7</tspan><tspan x="90.6" fill="#c9cdd3"> </tspan><tspan x="97.2 103.8 110.4 117.0 123.6 130.2" fill="#87afaf">[scan]</tspan><tspan x="136.8" fill="#c9cdd3"> </tspan><tspan x="143.4 150.0 156.6 163.2 169.8 176.4 183.0 189.6 196.2 202.8 209.4 216.0 222.6 229.2 235.8 242.4 249.0 255.6 262.2 268.8 275.4 282.0 288.6 295.2 301.8 308.4 315.0 321.6 328.2" fill="#626262">scan: grep for stream() impls</tspan><tspan x="334.8 341.4 348.0 354.6 361.2 367.8 374.4 381.0 387.6 394.2 400.8 407.4 414.0 420.6 427.2 433.8 440.4 447.0 453.6 460.2 466.8 473.4 480.0 486.6 493.2 499.8 506.4 513.0" fill="#c9cdd3">                            </tspan><tspan x="519.6 526.2 532.8 539.4 546.0 552.6" fill="#626262">queued</tspan></text><text y="141.5" font-size="11" font-family="ui-monospace,SFMono-Regular,Menlo,Consolas,monospace" xml:space="preserve"><tspan x="18.0" fill="#ffff00">▎</tspan><tspan x="24.6" fill="#c9cdd3"> </tspan><tspan x="31.2 37.8 44.4 51.0 57.6 64.2" fill="#4e4e4e">   ├─ </tspan><tspan x="70.8" fill="#afaf5f">✓</tspan><tspan x="77.4" fill="#c9cdd3"> </tspan><tspan x="84.0" fill="#626262">◇</tspan><tspan x="90.6" fill="#c9cdd3"> </tspan><tspan x="97.2 103.8" fill="#626262">#8</tspan><tspan x="110.4" fill="#c9cdd3"> </tspan><tspan x="117.0 123.6 130.2 136.8 143.4 150.0 156.6 163.2 169.8 176.4 183.0 189.6 196.2 202.8 209.4 216.0 222.6 229.2 235.8 242.4 249.0 255.6 262.2 268.8" fill="#808080">read openai-responses.ts</tspan><tspan x="275.4 282.0 288.6 295.2 301.8 308.4 315.0 321.6 328.2 334.8 341.4 348.0 354.6 361.2 367.8 374.4 381.0 387.6 394.2 400.8 407.4 414.0 420.6 427.2 433.8 440.4 447.0 453.6 460.2 466.8 473.4 480.0" fill="#c9cdd3">                                </tspan><tspan x="486.6 493.2 499.8 506.4" fill="#808080">2.5k</tspan><tspan x="513.0 519.6 526.2 532.8 539.4 546.0 552.6" fill="#626262"> · 1.2s</tspan></text><text y="157.0" font-size="11" font-family="ui-monospace,SFMono-Regular,Menlo,Consolas,monospace" xml:space="preserve"><tspan x="18.0" fill="#ffff00">▎</tspan><tspan x="24.6" fill="#c9cdd3"> </tspan><tspan x="31.2 37.8 44.4 51.0 57.6 64.2" fill="#4e4e4e">   └─ </tspan><tspan x="70.8" fill="#ffff00">⠋</tspan><tspan x="77.4" fill="#c9cdd3"> </tspan><tspan x="84.0" fill="#626262">◇</tspan><tspan x="90.6" fill="#c9cdd3"> </tspan><tspan x="97.2 103.8" fill="#626262">#9</tspan><tspan x="110.4 117.0 123.6 130.2 136.8 143.4 150.0 156.6 163.2 169.8 176.4 183.0 189.6 196.2 202.8 209.4 216.0 222.6 229.2 235.8 242.4 249.0 255.6 262.2 268.8 275.4 282.0 288.6 295.2 301.8 308.4 315.0 321.6 328.2 334.8 341.4 348.0 354.6 361.2 367.8 374.4 381.0 387.6 394.2 400.8 407.4 414.0 420.6 427.2 433.8 440.4 447.0 453.6 460.2 466.8 473.4 480.0 486.6 493.2 499.8" fill="#c9cdd3"> read anthropic.ts                                          </tspan><tspan x="506.4 513.0 519.6 526.2 532.8 539.4 546.0 552.6" fill="#ffff00">running…</tspan></text></g>
  <g class="f4"><rect x="0" y="38" width="577" height="189" fill="#13131a"/><text y="58.0" font-size="11" font-family="ui-monospace,SFMono-Regular,Menlo,Consolas,monospace" xml:space="preserve"><tspan x="18.0 24.6 31.2 37.8 44.4 51.0 57.6 64.2 70.8 77.4 84.0 90.6 97.2 103.8 110.4 117.0 123.6 130.2 136.8 143.4 150.0 156.6 163.2 169.8 176.4 183.0 189.6 196.2 202.8 209.4 216.0 222.6 229.2 235.8 242.4 249.0 255.6 262.2 268.8 275.4 282.0 288.6 295.2 301.8 308.4" fill="#00d7ff" font-weight="600">▸ complete — token + cost audit on the header</tspan></text><text y="79.5" font-size="11" font-family="ui-monospace,SFMono-Regular,Menlo,Consolas,monospace" xml:space="preserve"><tspan x="18.0" fill="#afaf5f">▎</tspan><tspan x="24.6" fill="#c9cdd3"> </tspan><tspan x="31.2" fill="#afaf5f">✓</tspan><tspan x="37.8" fill="#c9cdd3"> </tspan><tspan x="44.4 51.0 57.6 64.2 70.8 77.4 84.0 90.6" fill="#afaf5f">REVIEWED</tspan><tspan x="97.2" fill="#c9cdd3"> </tspan><tspan x="103.8" fill="#808080">7</tspan><tspan x="110.4" fill="#626262">/</tspan><tspan x="117.0" fill="#808080">7</tspan><tspan x="123.6 130.2 136.8 143.4 150.0 156.6 163.2 169.8 176.4 183.0 189.6 196.2 202.8 209.4 216.0 222.6 229.2" fill="#c9cdd3">                 </tspan><tspan x="235.8 242.4 249.0 255.6 262.2 268.8" fill="#808080">turn ↑</tspan><tspan x="275.4 282.0 288.6" fill="#c9cdd3">27k</tspan><tspan x="295.2 301.8" fill="#808080"> ↓</tspan><tspan x="308.4 315.0 321.6 328.2" fill="#c9cdd3">4.4k</tspan><tspan x="334.8 341.4 348.0" fill="#626262"> · </tspan><tspan x="354.6 361.2 367.8" fill="#808080">17s</tspan><tspan x="374.4 381.0 387.6" fill="#626262"> · </tspan><tspan x="394.2 400.8 407.4 414.0 420.6 427.2 433.8 440.4" fill="#c9cdd3">$0.190  </tspan><tspan x="447.0 453.6 460.2 466.8 473.4" fill="#626262">tasks</tspan><tspan x="480.0 486.6 493.2" fill="#626262"> · </tspan><tspan x="499.8 506.4 513.0 519.6 526.2 532.8 539.4 546.0 552.6" fill="#87afaf">subagents</tspan></text><text y="95.0" font-size="11" font-family="ui-monospace,SFMono-Regular,Menlo,Consolas,monospace" xml:space="preserve"><tspan x="18.0" fill="#afaf5f">▎</tspan><tspan x="24.6" fill="#c9cdd3"> </tspan><tspan x="31.2" fill="#afaf5f">✓</tspan><tspan x="37.8" fill="#c9cdd3"> </tspan><tspan x="44.4" fill="#626262">◇</tspan><tspan x="51.0" fill="#c9cdd3"> </tspan><tspan x="57.6 64.2 70.8" fill="#626262">#5 </tspan><tspan x="77.4" fill="#c9cdd3"> </tspan><tspan x="84.0 90.6 97.2 103.8 110.4 117.0 123.6 130.2 136.8" fill="#87afaf">[explore]</tspan><tspan x="143.4" fill="#c9cdd3"> </tspan><tspan x="150.0 156.6 163.2 169.8 176.4 183.0 189.6 196.2 202.8 209.4 216.0 222.6 229.2 235.8 242.4 249.0 255.6 262.2 268.8 275.4 282.0 288.6 295.2 301.8 308.4 315.0 321.6 328.2 334.8" fill="#808080">explore: map the ai providers</tspan><tspan x="341.4 348.0 354.6 361.2 367.8 374.4 381.0 387.6 394.2 400.8 407.4 414.0 420.6 427.2 433.8 440.4 447.0 453.6 460.2 466.8 473.4 480.0" fill="#c9cdd3">                      </tspan><tspan x="486.6 493.2 499.8 506.4" fill="#808080">9.6k</tspan><tspan x="513.0 519.6 526.2 532.8 539.4 546.0 552.6" fill="#626262"> · 5.6s</tspan></text><text y="110.5" font-size="11" font-family="ui-monospace,SFMono-Regular,Menlo,Consolas,monospace" xml:space="preserve"><tspan x="18.0" fill="#afaf5f">▎</tspan><tspan x="24.6" fill="#c9cdd3"> </tspan><tspan x="31.2 37.8 44.4" fill="#4e4e4e">├─ </tspan><tspan x="51.0" fill="#afaf5f">✓</tspan><tspan x="57.6" fill="#c9cdd3"> </tspan><tspan x="64.2" fill="#626262">◇</tspan><tspan x="70.8" fill="#c9cdd3"> </tspan><tspan x="77.4 84.0 90.6" fill="#626262">#6 </tspan><tspan x="97.2" fill="#c9cdd3"> </tspan><tspan x="103.8 110.4 117.0 123.6 130.2 136.8 143.4 150.0 156.6 163.2 169.8 176.4 183.0 189.6 196.2 202.8 209.4 216.0 222.6 229.2 235.8" fill="#808080">list provider modules</tspan><tspan x="242.4 249.0 255.6 262.2 268.8 275.4 282.0 288.6 295.2 301.8 308.4 315.0 321.6 328.2 334.8 341.4 348.0 354.6 361.2 367.8 374.4 381.0 387.6 394.2 400.8 407.4 414.0 420.6 427.2 433.8 440.4 447.0 453.6 460.2 466.8 473.4 480.0" fill="#c9cdd3">                                     </tspan><tspan x="486.6 493.2 499.8 506.4" fill="#808080">3.6k</tspan><tspan x="513.0 519.6 526.2 532.8 539.4 546.0 552.6" fill="#626262"> · 2.4s</tspan></text><text y="126.0" font-size="11" font-family="ui-monospace,SFMono-Regular,Menlo,Consolas,monospace" xml:space="preserve"><tspan x="18.0" fill="#afaf5f">▎</tspan><tspan x="24.6" fill="#c9cdd3"> </tspan><tspan x="31.2 37.8 44.4" fill="#4e4e4e">└─ </tspan><tspan x="51.0" fill="#afaf5f">✓</tspan><tspan x="57.6" fill="#c9cdd3"> </tspan><tspan x="64.2" fill="#626262">◇</tspan><tspan x="70.8" fill="#c9cdd3"> </tspan><tspan x="77.4 84.0 90.6" fill="#626262">#7 </tspan><tspan x="97.2" fill="#c9cdd3"> </tspan><tspan x="103.8 110.4 117.0 123.6 130.2 136.8" fill="#87afaf">[scan]</tspan><tspan x="143.4" fill="#c9cdd3"> </tspan><tspan x="150.0 156.6 163.2 169.8 176.4 183.0 189.6 196.2 202.8 209.4 216.0 222.6 229.2 235.8 242.4 249.0 255.6 262.2 268.8 275.4 282.0 288.6 295.2 301.8 308.4 315.0 321.6 328.2 334.8" fill="#808080">scan: grep for stream() impls</tspan><tspan x="341.4 348.0 354.6 361.2 367.8 374.4 381.0 387.6 394.2 400.8 407.4 414.0 420.6 427.2 433.8 440.4 447.0 453.6 460.2 466.8 473.4 480.0" fill="#c9cdd3">                      </tspan><tspan x="486.6 493.2 499.8 506.4" fill="#808080">5.0k</tspan><tspan x="513.0 519.6 526.2 532.8 539.4 546.0 552.6" fill="#626262"> · 2.3s</tspan></text><text y="141.5" font-size="11" font-family="ui-monospace,SFMono-Regular,Menlo,Consolas,monospace" xml:space="preserve"><tspan x="18.0" fill="#afaf5f">▎</tspan><tspan x="24.6" fill="#c9cdd3"> </tspan><tspan x="31.2 37.8 44.4 51.0 57.6 64.2" fill="#4e4e4e">   ├─ </tspan><tspan x="70.8" fill="#afaf5f">✓</tspan><tspan x="77.4" fill="#c9cdd3"> </tspan><tspan x="84.0" fill="#626262">◇</tspan><tspan x="90.6" fill="#c9cdd3"> </tspan><tspan x="97.2 103.8 110.4" fill="#626262">#8 </tspan><tspan x="117.0" fill="#c9cdd3"> </tspan><tspan x="123.6 130.2 136.8 143.4 150.0 156.6 163.2 169.8 176.4 183.0 189.6 196.2 202.8 209.4 216.0 222.6 229.2 235.8 242.4 249.0 255.6 262.2 268.8 275.4" fill="#808080">read openai-responses.ts</tspan><tspan x="282.0 288.6 295.2 301.8 308.4 315.0 321.6 328.2 334.8 341.4 348.0 354.6 361.2 367.8 374.4 381.0 387.6 394.2 400.8 407.4 414.0 420.6 427.2 433.8 440.4 447.0 453.6 460.2 466.8 473.4 480.0" fill="#c9cdd3">                               </tspan><tspan x="486.6 493.2 499.8 506.4" fill="#808080">2.5k</tspan><tspan x="513.0 519.6 526.2 532.8 539.4 546.0 552.6" fill="#626262"> · 1.2s</tspan></text><text y="157.0" font-size="11" font-family="ui-monospace,SFMono-Regular,Menlo,Consolas,monospace" xml:space="preserve"><tspan x="18.0" fill="#afaf5f">▎</tspan><tspan x="24.6" fill="#c9cdd3"> </tspan><tspan x="31.2 37.8 44.4 51.0 57.6 64.2" fill="#4e4e4e">   └─ </tspan><tspan x="70.8" fill="#afaf5f">✓</tspan><tspan x="77.4" fill="#c9cdd3"> </tspan><tspan x="84.0" fill="#626262">◇</tspan><tspan x="90.6" fill="#c9cdd3"> </tspan><tspan x="97.2 103.8 110.4" fill="#626262">#9 </tspan><tspan x="117.0" fill="#c9cdd3"> </tspan><tspan x="123.6 130.2 136.8 143.4 150.0 156.6 163.2 169.8 176.4 183.0 189.6 196.2 202.8 209.4 216.0 222.6 229.2" fill="#808080">read anthropic.ts</tspan><tspan x="235.8 242.4 249.0 255.6 262.2 268.8 275.4 282.0 288.6 295.2 301.8 308.4 315.0 321.6 328.2 334.8 341.4 348.0 354.6 361.2 367.8 374.4 381.0 387.6 394.2 400.8 407.4 414.0 420.6 427.2 433.8 440.4 447.0 453.6 460.2 466.8 473.4 480.0" fill="#c9cdd3">                                      </tspan><tspan x="486.6 493.2 499.8 506.4" fill="#808080">2.2k</tspan><tspan x="513.0 519.6 526.2 532.8 539.4 546.0 552.6" fill="#626262"> · 1.0s</tspan></text><text y="172.5" font-size="11" font-family="ui-monospace,SFMono-Regular,Menlo,Consolas,monospace" xml:space="preserve"><tspan x="18.0" fill="#afaf5f">▎</tspan><tspan x="24.6" fill="#c9cdd3"> </tspan><tspan x="31.2" fill="#afaf5f">✓</tspan><tspan x="37.8" fill="#c9cdd3"> </tspan><tspan x="44.4" fill="#626262">◇</tspan><tspan x="51.0" fill="#c9cdd3"> </tspan><tspan x="57.6 64.2 70.8" fill="#626262">#10</tspan><tspan x="77.4" fill="#c9cdd3"> </tspan><tspan x="84.0 90.6 97.2 103.8 110.4 117.0 123.6 130.2 136.8 143.4" fill="#87afaf">[reviewer]</tspan><tspan x="150.0" fill="#c9cdd3"> </tspan><tspan x="156.6 163.2 169.8 176.4 183.0 189.6 196.2 202.8 209.4 216.0 222.6 229.2 235.8 242.4 249.0 255.6 262.2 268.8 275.4 282.0 288.6 295.2 301.8 308.4 315.0 321.6 328.2 334.8 341.4 348.0 354.6 361.2" fill="#808080">reviewer: audit the handoff diff</tspan><tspan x="367.8 374.4 381.0 387.6 394.2 400.8 407.4 414.0 420.6 427.2 433.8 440.4 447.0 453.6 460.2 466.8 473.4 480.0" fill="#c9cdd3">                  </tspan><tspan x="486.6 493.2 499.8 506.4" fill="#808080">6.0k</tspan><tspan x="513.0 519.6 526.2 532.8 539.4 546.0 552.6" fill="#626262"> · 3.1s</tspan></text><text y="188.0" font-size="11" font-family="ui-monospace,SFMono-Regular,Menlo,Consolas,monospace" xml:space="preserve"><tspan x="18.0" fill="#afaf5f">▎</tspan><tspan x="24.6" fill="#c9cdd3"> </tspan><tspan x="31.2 37.8 44.4" fill="#4e4e4e">└─ </tspan><tspan x="51.0" fill="#afaf5f">✓</tspan><tspan x="57.6" fill="#c9cdd3"> </tspan><tspan x="64.2" fill="#626262">◇</tspan><tspan x="70.8" fill="#c9cdd3"> </tspan><tspan x="77.4 84.0 90.6" fill="#626262">#11</tspan><tspan x="97.2" fill="#c9cdd3"> </tspan><tspan x="103.8 110.4 117.0 123.6 130.2 136.8 143.4 150.0 156.6 163.2 169.8 176.4 183.0 189.6 196.2 202.8 209.4 216.0 222.6 229.2 235.8 242.4" fill="#808080">check message ordering</tspan><tspan x="249.0 255.6 262.2 268.8 275.4 282.0 288.6 295.2 301.8 308.4 315.0 321.6 328.2 334.8 341.4 348.0 354.6 361.2 367.8 374.4 381.0 387.6 394.2 400.8 407.4 414.0 420.6 427.2 433.8 440.4 447.0 453.6 460.2 466.8 473.4 480.0" fill="#c9cdd3">                                    </tspan><tspan x="486.6 493.2 499.8 506.4" fill="#808080">2.5k</tspan><tspan x="513.0 519.6 526.2 532.8 539.4 546.0 552.6" fill="#626262"> · 1.5s</tspan></text></g>
</svg>
